<svg width="131" height="25" viewBox="0 0 131 25" fill="none" xmlns="http://www.w3.org/2000/svg">
<rect x="0.595238" y="0.595238" width="129.81" height="23.8095" fill="black" stroke="url(#paint0_linear_1_146)" stroke-width="1.19048"/>
<path opacity="0.1" d="M0 0H84.5238L25 25H0V0Z" fill="white" fill-opacity="0.8"/>
<path d="M34.3403 17L38.8689 7H40.2832L44.8261 17H43.3261L39.2832 7.8H39.8546L35.8118 17H34.3403ZM36.2689 14.5L36.6546 13.3571H42.2832L42.6975 14.5H36.2689ZM50.1321 17.0857C49.5035 17.0857 48.9273 16.9429 48.4035 16.6571C47.8892 16.3619 47.4749 15.9286 47.1607 15.3571C46.8559 14.7857 46.7035 14.0714 46.7035 13.2143C46.7035 12.3571 46.8511 11.6429 47.1464 11.0714C47.4511 10.5 47.8607 10.0714 48.3749 9.78571C48.8988 9.5 49.4845 9.35714 50.1321 9.35714C50.8749 9.35714 51.5321 9.51905 52.1035 9.84286C52.6749 10.1667 53.1273 10.619 53.4607 11.2C53.794 11.7714 53.9607 12.4429 53.9607 13.2143C53.9607 13.9857 53.794 14.6619 53.4607 15.2429C53.1273 15.8238 52.6749 16.2762 52.1035 16.6C51.5321 16.9238 50.8749 17.0857 50.1321 17.0857ZM46.1178 19.7714V9.42857H47.4321V11.4714L47.3464 13.2286L47.4892 14.9857V19.7714H46.1178ZM50.0178 15.8857C50.5035 15.8857 50.9369 15.7762 51.3178 15.5571C51.7083 15.3381 52.013 15.0286 52.2321 14.6286C52.4607 14.219 52.5749 13.7476 52.5749 13.2143C52.5749 12.6714 52.4607 12.2048 52.2321 11.8143C52.013 11.4143 51.7083 11.1048 51.3178 10.8857C50.9369 10.6667 50.5035 10.5571 50.0178 10.5571C49.5416 10.5571 49.1083 10.6667 48.7178 10.8857C48.3369 11.1048 48.0321 11.4143 47.8035 11.8143C47.5845 12.2048 47.4749 12.6714 47.4749 13.2143C47.4749 13.7476 47.5845 14.219 47.8035 14.6286C48.0321 15.0286 48.3369 15.3381 48.7178 15.5571C49.1083 15.7762 49.5416 15.8857 50.0178 15.8857ZM60.4858 17V15.4L60.4143 15.1V12.3714C60.4143 11.7905 60.2429 11.3429 59.9001 11.0286C59.5667 10.7048 59.062 10.5429 58.3858 10.5429C57.9382 10.5429 57.5001 10.619 57.0715 10.7714C56.6429 10.9143 56.281 11.1095 55.9858 11.3571L55.4143 10.3286C55.8048 10.0143 56.2715 9.77619 56.8143 9.61429C57.3667 9.44286 57.9429 9.35714 58.5429 9.35714C59.581 9.35714 60.381 9.60952 60.9429 10.1143C61.5048 10.619 61.7858 11.3905 61.7858 12.4286V17H60.4858ZM58.0001 17.0857C57.4382 17.0857 56.9429 16.9905 56.5143 16.8C56.0953 16.6095 55.7715 16.3476 55.5429 16.0143C55.3143 15.6714 55.2001 15.2857 55.2001 14.8571C55.2001 14.4476 55.2953 14.0762 55.4858 13.7429C55.6858 13.4095 56.0048 13.1429 56.4429 12.9429C56.8905 12.7429 57.4905 12.6429 58.2429 12.6429H60.6429V13.6286H58.3001C57.6143 13.6286 57.1524 13.7429 56.9143 13.9714C56.6762 14.2 56.5572 14.4762 56.5572 14.8C56.5572 15.1714 56.7048 15.4714 57.0001 15.7C57.2953 15.919 57.7048 16.0286 58.2286 16.0286C58.7429 16.0286 59.1905 15.9143 59.5715 15.6857C59.962 15.4571 60.2429 15.1238 60.4143 14.6857L60.6858 15.6286C60.5048 16.0762 60.1858 16.4333 59.7286 16.7C59.2715 16.9571 58.6953 17.0857 58.0001 17.0857ZM64.3237 17V9.42857H65.638V11.4857L65.5094 10.9714C65.719 10.4476 66.0713 10.0476 66.5666 9.77143C67.0618 9.49524 67.6713 9.35714 68.3951 9.35714V10.6857C68.338 10.6762 68.2809 10.6714 68.2237 10.6714C68.1761 10.6714 68.1285 10.6714 68.0809 10.6714C67.3475 10.6714 66.7666 10.8905 66.338 11.3286C65.9094 11.7667 65.6951 12.4 65.6951 13.2286V17H64.3237ZM72.9924 17.0857C72.2305 17.0857 71.64 16.881 71.2209 16.4714C70.8019 16.0619 70.5924 15.4762 70.5924 14.7143V7.77143H71.9638V14.6571C71.9638 15.0667 72.0638 15.381 72.2638 15.6C72.4733 15.819 72.7685 15.9286 73.1495 15.9286C73.5781 15.9286 73.9352 15.8095 74.2209 15.5714L74.6495 16.5571C74.44 16.7381 74.1876 16.8714 73.8924 16.9571C73.6066 17.0429 73.3066 17.0857 72.9924 17.0857ZM69.3066 10.5571V9.42857H74.1352V10.5571H69.3066ZM85.779 9.35714C86.3885 9.35714 86.9266 9.47619 87.3932 9.71429C87.8599 9.95238 88.2218 10.3143 88.479 10.8C88.7456 11.2857 88.879 11.9 88.879 12.6429V17H87.5075V12.8C87.5075 12.0667 87.3361 11.5143 86.9932 11.1429C86.6504 10.7714 86.1694 10.5857 85.5504 10.5857C85.0932 10.5857 84.6932 10.681 84.3504 10.8714C84.0075 11.0619 83.7409 11.3429 83.5504 11.7143C83.3694 12.0857 83.279 12.5476 83.279 13.1V17H81.9075V12.8C81.9075 12.0667 81.7361 11.5143 81.3932 11.1429C81.0599 10.7714 80.579 10.5857 79.9504 10.5857C79.5028 10.5857 79.1075 10.681 78.7647 10.8714C78.4218 11.0619 78.1552 11.3429 77.9647 11.7143C77.7742 12.0857 77.679 12.5476 77.679 13.1V17H76.3075V9.42857H77.6218V11.4429L77.4075 10.9286C77.6456 10.4333 78.0123 10.0476 78.5075 9.77143C79.0028 9.49524 79.579 9.35714 80.2361 9.35714C80.9599 9.35714 81.5837 9.5381 82.1075 9.9C82.6313 10.2524 82.9742 10.7905 83.1361 11.5143L82.579 11.2857C82.8075 10.7048 83.2075 10.2381 83.779 9.88571C84.3504 9.53333 85.0171 9.35714 85.779 9.35714ZM94.7738 17.0857C93.9643 17.0857 93.25 16.919 92.631 16.5857C92.0214 16.2524 91.5453 15.7952 91.2024 15.2143C90.8691 14.6333 90.7024 13.9667 90.7024 13.2143C90.7024 12.4619 90.8643 11.7952 91.1881 11.2143C91.5214 10.6333 91.9738 10.181 92.5453 9.85714C93.1262 9.52381 93.7786 9.35714 94.5024 9.35714C95.2357 9.35714 95.8834 9.51905 96.4453 9.84286C97.0072 10.1667 97.4453 10.6238 97.7595 11.2143C98.0834 11.7952 98.2453 12.4762 98.2453 13.2571C98.2453 13.3143 98.2405 13.381 98.231 13.4571C98.231 13.5333 98.2262 13.6048 98.2167 13.6714H91.7738V12.6857H97.5024L96.9453 13.0286C96.9548 12.5429 96.8548 12.1095 96.6453 11.7286C96.4357 11.3476 96.1453 11.0524 95.7738 10.8429C95.4119 10.6238 94.9881 10.5143 94.5024 10.5143C94.0262 10.5143 93.6024 10.6238 93.231 10.8429C92.8595 11.0524 92.5691 11.3524 92.3595 11.7429C92.15 12.1238 92.0453 12.5619 92.0453 13.0571V13.2857C92.0453 13.7905 92.1595 14.2429 92.3881 14.6429C92.6262 15.0333 92.9548 15.3381 93.3738 15.5571C93.7929 15.7762 94.2738 15.8857 94.8167 15.8857C95.2643 15.8857 95.6691 15.8095 96.031 15.6571C96.4024 15.5048 96.7262 15.2762 97.0024 14.9714L97.7595 15.8571C97.4167 16.2571 96.9881 16.5619 96.4738 16.7714C95.9691 16.981 95.4024 17.0857 94.7738 17.0857ZM104.192 9.35714C104.812 9.35714 105.354 9.47619 105.821 9.71429C106.297 9.95238 106.669 10.3143 106.935 10.8C107.202 11.2857 107.335 11.9 107.335 12.6429V17H105.964V12.8C105.964 12.0667 105.783 11.5143 105.421 11.1429C105.069 10.7714 104.569 10.5857 103.921 10.5857C103.435 10.5857 103.012 10.681 102.65 10.8714C102.288 11.0619 102.007 11.3429 101.807 11.7143C101.616 12.0857 101.521 12.5476 101.521 13.1V17H100.15V9.42857H101.464V11.4714L101.25 10.9286C101.497 10.4333 101.878 10.0476 102.392 9.77143C102.907 9.49524 103.507 9.35714 104.192 9.35714ZM112.473 17.0857C111.711 17.0857 111.121 16.881 110.702 16.4714C110.283 16.0619 110.073 15.4762 110.073 14.7143V7.77143H111.445V14.6571C111.445 15.0667 111.545 15.381 111.745 15.6C111.954 15.819 112.25 15.9286 112.631 15.9286C113.059 15.9286 113.416 15.8095 113.702 15.5714L114.131 16.5571C113.921 16.7381 113.669 16.8714 113.373 16.9571C113.088 17.0429 112.788 17.0857 112.473 17.0857ZM108.788 10.5571V9.42857H113.616V10.5571H108.788ZM117.96 17.0857C117.331 17.0857 116.731 17 116.16 16.8286C115.598 16.6571 115.155 16.4476 114.831 16.2L115.403 15.1143C115.727 15.3333 116.127 15.519 116.603 15.6714C117.079 15.8238 117.565 15.9 118.06 15.9C118.698 15.9 119.155 15.8095 119.431 15.6286C119.717 15.4476 119.86 15.1952 119.86 14.8714C119.86 14.6333 119.774 14.4476 119.603 14.3143C119.431 14.181 119.203 14.081 118.917 14.0143C118.641 13.9476 118.331 13.8905 117.989 13.8429C117.646 13.7857 117.303 13.719 116.96 13.6429C116.617 13.5571 116.303 13.4429 116.017 13.3C115.731 13.1476 115.503 12.9429 115.331 12.6857C115.16 12.419 115.074 12.0667 115.074 11.6286C115.074 11.1714 115.203 10.7714 115.46 10.4286C115.717 10.0857 116.079 9.82381 116.546 9.64286C117.022 9.45238 117.584 9.35714 118.231 9.35714C118.727 9.35714 119.227 9.41905 119.731 9.54286C120.246 9.65714 120.665 9.82381 120.989 10.0429L120.403 11.1286C120.06 10.9 119.703 10.7429 119.331 10.6571C118.96 10.5714 118.589 10.5286 118.217 10.5286C117.617 10.5286 117.17 10.6286 116.874 10.8286C116.579 11.019 116.431 11.2667 116.431 11.5714C116.431 11.8286 116.517 12.0286 116.689 12.1714C116.87 12.3048 117.098 12.4095 117.374 12.4857C117.66 12.5619 117.974 12.6286 118.317 12.6857C118.66 12.7333 119.003 12.8 119.346 12.8857C119.689 12.9619 119.998 13.0714 120.274 13.2143C120.56 13.3571 120.789 13.5571 120.96 13.8143C121.141 14.0714 121.231 14.4143 121.231 14.8429C121.231 15.3 121.098 15.6952 120.831 16.0286C120.565 16.3619 120.189 16.6238 119.703 16.8143C119.217 16.9952 118.636 17.0857 117.96 17.0857Z" fill="white"/>
<rect x="4" y="3" width="19" height="19" fill="white"/>
<path d="M7.11238 17V8.6H8.39638L12.0684 14.732H11.3964L15.0084 8.6H16.2924L16.3044 17H14.8284L14.8164 10.916H15.1284L12.0564 16.04H11.3604L8.24038 10.916H8.60038V17H7.11238ZM19.3173 17V9.2L20.0013 9.908H17.5413V8.6H20.8773V17H19.3173Z" fill="black"/>
<defs>
<linearGradient id="paint0_linear_1_146" x1="11.993" y1="-9.95314e-06" x2="117.175" y2="58.044" gradientUnits="userSpaceOnUse">
<stop stop-color="white" stop-opacity="0.1"/>
<stop offset="1" stop-opacity="0"/>
</linearGradient>
</defs>
</svg>
