<svg width="310" height="44" viewBox="0 0 310 44" fill="none" xmlns="http://www.w3.org/2000/svg">
<rect width="310" height="44" fill="black"/>
<path opacity="0.1" d="M0 0H253L95.5 44H0V0Z" fill="white"/>
<path d="M259.843 22.335L264.5 26.9922L269.157 22.335" stroke="white" stroke-width="1.3" stroke-miterlimit="10" stroke-linecap="square"/>
<mask id="mask0_1_239" style="mask-type:luminance" maskUnits="userSpaceOnUse" x="255" y="12" width="19" height="19">
<path d="M255 12.0001H274V31H255V12.0001Z" fill="white"/>
</mask>
<g mask="url(#mask0_1_239)">
<path d="M264.5 26.3242V12.7422" stroke="white" stroke-width="1.3" stroke-miterlimit="10" stroke-linecap="square" stroke-linejoin="round"/>
<path d="M255 30.2578H274" stroke="white" stroke-width="1.3" stroke-miterlimit="10"/>
</g>
<path d="M30.824 27V15.8H35.384C36.5787 15.8 37.624 16.04 38.52 16.52C39.4267 16.9893 40.1307 17.6453 40.632 18.488C41.1333 19.3307 41.384 20.3013 41.384 21.4C41.384 22.4987 41.1333 23.4693 40.632 24.312C40.1307 25.1547 39.4267 25.816 38.52 26.296C37.624 26.7653 36.5787 27 35.384 27H30.824ZM32.008 25.976H35.32C36.312 25.976 37.1707 25.784 37.896 25.4C38.632 25.0053 39.2027 24.4667 39.608 23.784C40.0133 23.0907 40.216 22.296 40.216 21.4C40.216 20.4933 40.0133 19.6987 39.608 19.016C39.2027 18.3333 38.632 17.8 37.896 17.416C37.1707 17.0213 36.312 16.824 35.32 16.824H32.008V25.976ZM48.9388 27.096C48.0961 27.096 47.3121 26.9573 46.5868 26.68C45.8721 26.392 45.2481 25.992 44.7148 25.48C44.1921 24.9573 43.7814 24.3547 43.4828 23.672C43.1948 22.9787 43.0508 22.2213 43.0508 21.4C43.0508 20.5787 43.1948 19.8267 43.4828 19.144C43.7814 18.4507 44.1921 17.848 44.7148 17.336C45.2481 16.8133 45.8721 16.4133 46.5868 16.136C47.3014 15.848 48.0854 15.704 48.9388 15.704C49.7814 15.704 50.5601 15.848 51.2748 16.136C51.9894 16.4133 52.6081 16.808 53.1308 17.32C53.6641 17.832 54.0748 18.4347 54.3628 19.128C54.6614 19.8213 54.8108 20.5787 54.8108 21.4C54.8108 22.2213 54.6614 22.9787 54.3628 23.672C54.0748 24.3653 53.6641 24.968 53.1308 25.48C52.6081 25.992 51.9894 26.392 51.2748 26.68C50.5601 26.9573 49.7814 27.096 48.9388 27.096ZM48.9388 26.04C49.6108 26.04 50.2294 25.928 50.7948 25.704C51.3708 25.4693 51.8668 25.144 52.2828 24.728C52.7094 24.3013 53.0401 23.8107 53.2748 23.256C53.5094 22.6907 53.6268 22.072 53.6268 21.4C53.6268 20.728 53.5094 20.1147 53.2748 19.56C53.0401 18.9947 52.7094 18.504 52.2828 18.088C51.8668 17.6613 51.3708 17.336 50.7948 17.112C50.2294 16.8773 49.6108 16.76 48.9388 16.76C48.2668 16.76 47.6428 16.8773 47.0668 17.112C46.4908 17.336 45.9894 17.6613 45.5628 18.088C45.1468 18.504 44.8161 18.9947 44.5707 19.56C44.3361 20.1147 44.2188 20.728 44.2188 21.4C44.2188 22.0613 44.3361 22.6747 44.5707 23.24C44.8161 23.8053 45.1468 24.3013 45.5628 24.728C45.9894 25.144 46.4908 25.4693 47.0668 25.704C47.6428 25.928 48.2668 26.04 48.9388 26.04ZM59.6805 27L55.9045 15.8H57.1205L60.6565 26.344H60.0485L63.6965 15.8H64.7845L68.3845 26.344H67.8085L71.3765 15.8H72.5125L68.7365 27H67.4885L64.0485 17H64.3685L60.9125 27H59.6805ZM74.6834 27V15.8H75.6594L83.3874 25.528H82.8754V15.8H84.0434V27H83.0674L75.3554 17.272H75.8674V27H74.6834ZM87.699 27V15.8H88.883V25.976H95.155V27H87.699ZM101.798 27.096C100.955 27.096 100.171 26.9573 99.4461 26.68C98.7315 26.392 98.1075 25.992 97.5741 25.48C97.0515 24.9573 96.6408 24.3547 96.3421 23.672C96.0541 22.9787 95.9101 22.2213 95.9101 21.4C95.9101 20.5787 96.0541 19.8267 96.3421 19.144C96.6408 18.4507 97.0515 17.848 97.5741 17.336C98.1075 16.8133 98.7315 16.4133 99.4461 16.136C100.161 15.848 100.945 15.704 101.798 15.704C102.641 15.704 103.419 15.848 104.134 16.136C104.849 16.4133 105.467 16.808 105.99 17.32C106.523 17.832 106.934 18.4347 107.222 19.128C107.521 19.8213 107.67 20.5787 107.67 21.4C107.67 22.2213 107.521 22.9787 107.222 23.672C106.934 24.3653 106.523 24.968 105.99 25.48C105.467 25.992 104.849 26.392 104.134 26.68C103.419 26.9573 102.641 27.096 101.798 27.096ZM101.798 26.04C102.47 26.04 103.089 25.928 103.654 25.704C104.23 25.4693 104.726 25.144 105.142 24.728C105.569 24.3013 105.899 23.8107 106.134 23.256C106.369 22.6907 106.486 22.072 106.486 21.4C106.486 20.728 106.369 20.1147 106.134 19.56C105.899 18.9947 105.569 18.504 105.142 18.088C104.726 17.6613 104.23 17.336 103.654 17.112C103.089 16.8773 102.47 16.76 101.798 16.76C101.126 16.76 100.502 16.8773 99.9261 17.112C99.3501 17.336 98.8488 17.6613 98.4221 18.088C98.0061 18.504 97.6755 18.9947 97.4301 19.56C97.1955 20.1147 97.0781 20.728 97.0781 21.4C97.0781 22.0613 97.1955 22.6747 97.4301 23.24C97.6755 23.8053 98.0061 24.3013 98.4221 24.728C98.8488 25.144 99.3501 25.4693 99.9261 25.704C100.502 25.928 101.126 26.04 101.798 26.04ZM108.376 27L113.496 15.8H114.664L119.784 27H118.536L113.832 16.488H114.312L109.608 27H108.376ZM110.392 24.008L110.744 23.048H117.256L117.608 24.008H110.392ZM121.637 27V15.8H126.197C127.391 15.8 128.437 16.04 129.333 16.52C130.239 16.9893 130.943 17.6453 131.445 18.488C131.946 19.3307 132.197 20.3013 132.197 21.4C132.197 22.4987 131.946 23.4693 131.445 24.312C130.943 25.1547 130.239 25.816 129.333 26.296C128.437 26.7653 127.391 27 126.197 27H121.637ZM122.821 25.976H126.133C127.125 25.976 127.983 25.784 128.709 25.4C129.445 25.0053 130.015 24.4667 130.421 23.784C130.826 23.0907 131.029 22.296 131.029 21.4C131.029 20.4933 130.826 19.6987 130.421 19.016C130.015 18.3333 129.445 17.8 128.709 17.416C127.983 17.0213 127.125 16.824 126.133 16.824H122.821V25.976ZM139.043 27V15.8H143.875C145.123 15.8 146.088 16.0507 146.771 16.552C147.464 17.0533 147.811 17.7627 147.811 18.68C147.811 19.288 147.667 19.8 147.379 20.216C147.101 20.632 146.717 20.9467 146.227 21.16C145.747 21.3733 145.219 21.48 144.643 21.48L144.915 21.096C145.629 21.096 146.243 21.208 146.755 21.432C147.277 21.6453 147.683 21.9707 147.971 22.408C148.259 22.8347 148.403 23.368 148.403 24.008C148.403 24.9573 148.051 25.6933 147.347 26.216C146.653 26.7387 145.603 27 144.195 27H139.043ZM140.227 26.024H144.179C145.16 26.024 145.912 25.8587 146.435 25.528C146.957 25.1867 147.219 24.648 147.219 23.912C147.219 23.1867 146.957 22.6587 146.435 22.328C145.912 21.9867 145.16 21.816 144.179 21.816H140.099V20.84H143.795C144.691 20.84 145.384 20.6693 145.875 20.328C146.376 19.9867 146.627 19.48 146.627 18.808C146.627 18.1253 146.376 17.6187 145.875 17.288C145.384 16.9467 144.691 16.776 143.795 16.776H140.227V26.024ZM151.105 27V15.8H155.297C156.247 15.8 157.063 15.9547 157.745 16.264C158.428 16.5627 158.951 17 159.313 17.576C159.687 18.1413 159.873 18.8293 159.873 19.64C159.873 20.4293 159.687 21.112 159.313 21.688C158.951 22.2533 158.428 22.6907 157.745 23C157.063 23.2987 156.247 23.448 155.297 23.448H151.761L152.289 22.904V27H151.105ZM158.753 27L155.873 22.936H157.153L160.049 27H158.753ZM152.289 23L151.761 22.44H155.265C156.385 22.44 157.233 22.1947 157.809 21.704C158.396 21.2133 158.689 20.5253 158.689 19.64C158.689 18.744 158.396 18.0507 157.809 17.56C157.233 17.0693 156.385 16.824 155.265 16.824H151.761L152.289 16.264V23ZM167.564 27.096C166.721 27.096 165.937 26.9573 165.212 26.68C164.497 26.392 163.873 25.992 163.34 25.48C162.817 24.9573 162.406 24.3547 162.108 23.672C161.82 22.9787 161.676 22.2213 161.676 21.4C161.676 20.5787 161.82 19.8267 162.108 19.144C162.406 18.4507 162.817 17.848 163.34 17.336C163.873 16.8133 164.497 16.4133 165.212 16.136C165.926 15.848 166.71 15.704 167.564 15.704C168.406 15.704 169.185 15.848 169.9 16.136C170.614 16.4133 171.233 16.808 171.756 17.32C172.289 17.832 172.7 18.4347 172.988 19.128C173.286 19.8213 173.436 20.5787 173.436 21.4C173.436 22.2213 173.286 22.9787 172.988 23.672C172.7 24.3653 172.289 24.968 171.756 25.48C171.233 25.992 170.614 26.392 169.9 26.68C169.185 26.9573 168.406 27.096 167.564 27.096ZM167.564 26.04C168.236 26.04 168.854 25.928 169.42 25.704C169.996 25.4693 170.492 25.144 170.908 24.728C171.334 24.3013 171.665 23.8107 171.9 23.256C172.134 22.6907 172.252 22.072 172.252 21.4C172.252 20.728 172.134 20.1147 171.9 19.56C171.665 18.9947 171.334 18.504 170.908 18.088C170.492 17.6613 169.996 17.336 169.42 17.112C168.854 16.8773 168.236 16.76 167.564 16.76C166.892 16.76 166.268 16.8773 165.692 17.112C165.116 17.336 164.614 17.6613 164.188 18.088C163.772 18.504 163.441 18.9947 163.196 19.56C162.961 20.1147 162.844 20.728 162.844 21.4C162.844 22.0613 162.961 22.6747 163.196 23.24C163.441 23.8053 163.772 24.3013 164.188 24.728C164.614 25.144 165.116 25.4693 165.692 25.704C166.268 25.928 166.892 26.04 167.564 26.04ZM180.954 27.096C180.111 27.096 179.332 26.9573 178.618 26.68C177.903 26.392 177.284 25.992 176.762 25.48C176.239 24.968 175.828 24.3653 175.53 23.672C175.242 22.9787 175.098 22.2213 175.098 21.4C175.098 20.5787 175.242 19.8213 175.53 19.128C175.828 18.4347 176.239 17.832 176.762 17.32C177.295 16.808 177.919 16.4133 178.634 16.136C179.348 15.848 180.127 15.704 180.97 15.704C181.78 15.704 182.543 15.8427 183.258 16.12C183.972 16.3867 184.575 16.792 185.066 17.336L184.314 18.088C183.855 17.6187 183.348 17.2827 182.794 17.08C182.239 16.8667 181.642 16.76 181.002 16.76C180.33 16.76 179.706 16.8773 179.13 17.112C178.554 17.336 178.052 17.6613 177.626 18.088C177.199 18.504 176.863 18.9947 176.618 19.56C176.383 20.1147 176.266 20.728 176.266 21.4C176.266 22.072 176.383 22.6907 176.618 23.256C176.863 23.8107 177.199 24.3013 177.626 24.728C178.052 25.144 178.554 25.4693 179.13 25.704C179.706 25.928 180.33 26.04 181.002 26.04C181.642 26.04 182.239 25.9333 182.794 25.72C183.348 25.5067 183.855 25.1653 184.314 24.696L185.066 25.448C184.575 25.992 183.972 26.4027 183.258 26.68C182.543 26.9573 181.775 27.096 180.954 27.096ZM195.782 15.8H196.95V27H195.782V15.8ZM188.774 27H187.59V15.8H188.774V27ZM195.894 21.832H188.646V20.792H195.894V21.832ZM205.117 27.096C203.688 27.096 202.563 26.6853 201.741 25.864C200.92 25.0427 200.509 23.8267 200.509 22.216V15.8H201.693V22.168C201.693 23.4907 201.992 24.4667 202.589 25.096C203.187 25.7253 204.029 26.04 205.117 26.04C206.216 26.04 207.064 25.7253 207.661 25.096C208.259 24.4667 208.557 23.4907 208.557 22.168V15.8H209.709V22.216C209.709 23.8267 209.299 25.0427 208.477 25.864C207.667 26.6853 206.547 27.096 205.117 27.096ZM213.277 27V15.8H217.469C218.418 15.8 219.234 15.9547 219.917 16.264C220.6 16.5627 221.122 17 221.485 17.576C221.858 18.1413 222.045 18.8293 222.045 19.64C222.045 20.4293 221.858 21.112 221.485 21.688C221.122 22.2533 220.6 22.6907 219.917 23C219.234 23.2987 218.418 23.448 217.469 23.448H213.933L214.461 22.904V27H213.277ZM220.925 27L218.045 22.936H219.325L222.221 27H220.925ZM214.461 23L213.933 22.44H217.437C218.557 22.44 219.405 22.1947 219.981 21.704C220.568 21.2133 220.861 20.5253 220.861 19.64C220.861 18.744 220.568 18.0507 219.981 17.56C219.405 17.0693 218.557 16.824 217.437 16.824H213.933L214.461 16.264V23ZM225.896 20.808H231.816V21.816H225.896V20.808ZM226.024 25.976H232.76V27H224.84V15.8H232.52V16.824H226.024V25.976Z" fill="white"/>
</svg>
