<svg width="131" height="25" viewBox="0 0 131 25" fill="none" xmlns="http://www.w3.org/2000/svg">
<rect x="0.595238" y="0.595238" width="129.81" height="23.8095" fill="black" stroke="url(#paint0_linear_1_140)" stroke-width="1.19048"/>
<path opacity="0.1" d="M0 0H84.5238L25 25H0V0Z" fill="white" fill-opacity="0.8"/>
<path d="M44.9994 17V7H46.1709L50.6566 14.5571H50.028L54.4566 7H55.628L55.6423 17H54.2709L54.2566 9.15714H54.5852L50.6423 15.7857H49.9852L46.0137 9.15714H46.3709V17H44.9994ZM63.1434 17V15.4L63.072 15.1V12.3714C63.072 11.7905 62.9006 11.3429 62.5577 11.0286C62.2244 10.7048 61.7196 10.5429 61.0434 10.5429C60.5958 10.5429 60.1577 10.619 59.7291 10.7714C59.3006 10.9143 58.9387 11.1095 58.6434 11.3571L58.072 10.3286C58.4625 10.0143 58.9291 9.77619 59.472 9.61429C60.0244 9.44286 60.6006 9.35714 61.2006 9.35714C62.2387 9.35714 63.0387 9.60952 63.6006 10.1143C64.1625 10.619 64.4434 11.3905 64.4434 12.4286V17H63.1434ZM60.6577 17.0857C60.0958 17.0857 59.6006 16.9905 59.172 16.8C58.7529 16.6095 58.4291 16.3476 58.2006 16.0143C57.972 15.6714 57.8577 15.2857 57.8577 14.8571C57.8577 14.4476 57.9529 14.0762 58.1434 13.7429C58.3434 13.4095 58.6625 13.1429 59.1006 12.9429C59.5482 12.7429 60.1482 12.6429 60.9006 12.6429H63.3006V13.6286H60.9577C60.272 13.6286 59.8101 13.7429 59.572 13.9714C59.3339 14.2 59.2148 14.4762 59.2148 14.8C59.2148 15.1714 59.3625 15.4714 59.6577 15.7C59.9529 15.919 60.3625 16.0286 60.8863 16.0286C61.4006 16.0286 61.8482 15.9143 62.2291 15.6857C62.6196 15.4571 62.9006 15.1238 63.072 14.6857L63.3434 15.6286C63.1625 16.0762 62.8434 16.4333 62.3863 16.7C61.9291 16.9571 61.3529 17.0857 60.6577 17.0857ZM71.0242 9.35714C71.6433 9.35714 72.1861 9.47619 72.6528 9.71429C73.129 9.95238 73.5004 10.3143 73.7671 10.8C74.0337 11.2857 74.1671 11.9 74.1671 12.6429V17H72.7956V12.8C72.7956 12.0667 72.6147 11.5143 72.2528 11.1429C71.9004 10.7714 71.4004 10.5857 70.7528 10.5857C70.2671 10.5857 69.8433 10.681 69.4814 10.8714C69.1195 11.0619 68.8385 11.3429 68.6385 11.7143C68.448 12.0857 68.3528 12.5476 68.3528 13.1V17H66.9814V9.42857H68.2956V11.4714L68.0814 10.9286C68.329 10.4333 68.7099 10.0476 69.2242 9.77143C69.7385 9.49524 70.3385 9.35714 71.0242 9.35714ZM78.8766 17.0857C78.248 17.0857 77.648 17 77.0766 16.8286C76.5147 16.6571 76.0718 16.4476 75.748 16.2L76.3194 15.1143C76.6432 15.3333 77.0432 15.519 77.5194 15.6714C77.9956 15.8238 78.4813 15.9 78.9766 15.9C79.6147 15.9 80.0718 15.8095 80.348 15.6286C80.6337 15.4476 80.7766 15.1952 80.7766 14.8714C80.7766 14.6333 80.6909 14.4476 80.5194 14.3143C80.348 14.181 80.1194 14.081 79.8337 14.0143C79.5575 13.9476 79.248 13.8905 78.9051 13.8429C78.5623 13.7857 78.2194 13.719 77.8766 13.6429C77.5337 13.5571 77.2194 13.4429 76.9337 13.3C76.648 13.1476 76.4194 12.9429 76.248 12.6857C76.0766 12.419 75.9909 12.0667 75.9909 11.6286C75.9909 11.1714 76.1194 10.7714 76.3766 10.4286C76.6337 10.0857 76.9956 9.82381 77.4623 9.64286C77.9385 9.45238 78.5004 9.35714 79.148 9.35714C79.6432 9.35714 80.1432 9.41905 80.648 9.54286C81.1623 9.65714 81.5813 9.82381 81.9051 10.0429L81.3194 11.1286C80.9766 10.9 80.6194 10.7429 80.248 10.6571C79.8766 10.5714 79.5051 10.5286 79.1337 10.5286C78.5337 10.5286 78.0861 10.6286 77.7909 10.8286C77.4956 11.019 77.348 11.2667 77.348 11.5714C77.348 11.8286 77.4337 12.0286 77.6051 12.1714C77.7861 12.3048 78.0147 12.4095 78.2909 12.4857C78.5766 12.5619 78.8909 12.6286 79.2337 12.6857C79.5766 12.7333 79.9194 12.8 80.2623 12.8857C80.6051 12.9619 80.9147 13.0714 81.1909 13.2143C81.4766 13.3571 81.7051 13.5571 81.8766 13.8143C82.0575 14.0714 82.148 14.4143 82.148 14.8429C82.148 15.3 82.0147 15.6952 81.748 16.0286C81.4813 16.3619 81.1051 16.6238 80.6194 16.8143C80.1337 16.9952 79.5528 17.0857 78.8766 17.0857ZM83.8619 17V9.42857H85.2334V17H83.8619ZM84.5477 7.97143C84.281 7.97143 84.0572 7.88571 83.8762 7.71429C83.7048 7.54286 83.6191 7.33333 83.6191 7.08571C83.6191 6.82857 83.7048 6.61429 83.8762 6.44286C84.0572 6.27143 84.281 6.18571 84.5477 6.18571C84.8143 6.18571 85.0334 6.27143 85.2048 6.44286C85.3858 6.60476 85.4762 6.80952 85.4762 7.05714C85.4762 7.31429 85.3905 7.53333 85.2191 7.71429C85.0477 7.88571 84.8238 7.97143 84.5477 7.97143ZM91.0948 17.0857C90.3329 17.0857 89.6567 16.919 89.0662 16.5857C88.4757 16.2524 88.009 15.7952 87.6662 15.2143C87.3233 14.6238 87.1519 13.9571 87.1519 13.2143C87.1519 12.4619 87.3233 11.7952 87.6662 11.2143C88.009 10.6333 88.4757 10.181 89.0662 9.85714C89.6567 9.52381 90.3329 9.35714 91.0948 9.35714C91.8471 9.35714 92.5186 9.52381 93.109 9.85714C93.709 10.181 94.1757 10.6333 94.509 11.2143C94.8519 11.7857 95.0233 12.4524 95.0233 13.2143C95.0233 13.9667 94.8519 14.6333 94.509 15.2143C94.1757 15.7952 93.709 16.2524 93.109 16.5857C92.5186 16.919 91.8471 17.0857 91.0948 17.0857ZM91.0948 15.8857C91.5805 15.8857 92.0138 15.7762 92.3948 15.5571C92.7852 15.3381 93.09 15.0286 93.309 14.6286C93.5281 14.219 93.6376 13.7476 93.6376 13.2143C93.6376 12.6714 93.5281 12.2048 93.309 11.8143C93.09 11.4143 92.7852 11.1048 92.3948 10.8857C92.0138 10.6667 91.5805 10.5571 91.0948 10.5571C90.609 10.5571 90.1757 10.6667 89.7948 10.8857C89.4138 11.1048 89.109 11.4143 88.8805 11.8143C88.6519 12.2048 88.5376 12.6714 88.5376 13.2143C88.5376 13.7476 88.6519 14.219 88.8805 14.6286C89.109 15.0286 89.4138 15.3381 89.7948 15.5571C90.1757 15.7762 90.609 15.8857 91.0948 15.8857ZM100.963 9.35714C101.582 9.35714 102.125 9.47619 102.591 9.71429C103.068 9.95238 103.439 10.3143 103.706 10.8C103.972 11.2857 104.106 11.9 104.106 12.6429V17H102.734V12.8C102.734 12.0667 102.553 11.5143 102.191 11.1429C101.839 10.7714 101.339 10.5857 100.691 10.5857C100.206 10.5857 99.7819 10.681 99.42 10.8714C99.0581 11.0619 98.7771 11.3429 98.5771 11.7143C98.3866 12.0857 98.2914 12.5476 98.2914 13.1V17H96.92V9.42857H98.2343V11.4714L98.02 10.9286C98.2676 10.4333 98.6486 10.0476 99.1628 9.77143C99.6771 9.49524 100.277 9.35714 100.963 9.35714ZM108.815 17.0857C108.187 17.0857 107.587 17 107.015 16.8286C106.453 16.6571 106.01 16.4476 105.687 16.2L106.258 15.1143C106.582 15.3333 106.982 15.519 107.458 15.6714C107.934 15.8238 108.42 15.9 108.915 15.9C109.553 15.9 110.01 15.8095 110.287 15.6286C110.572 15.4476 110.715 15.1952 110.715 14.8714C110.715 14.6333 110.629 14.4476 110.458 14.3143C110.287 14.181 110.058 14.081 109.772 14.0143C109.496 13.9476 109.187 13.8905 108.844 13.8429C108.501 13.7857 108.158 13.719 107.815 13.6429C107.472 13.5571 107.158 13.4429 106.872 13.3C106.587 13.1476 106.358 12.9429 106.187 12.6857C106.015 12.419 105.929 12.0667 105.929 11.6286C105.929 11.1714 106.058 10.7714 106.315 10.4286C106.572 10.0857 106.934 9.82381 107.401 9.64286C107.877 9.45238 108.439 9.35714 109.087 9.35714C109.582 9.35714 110.082 9.41905 110.587 9.54286C111.101 9.65714 111.52 9.82381 111.844 10.0429L111.258 11.1286C110.915 10.9 110.558 10.7429 110.187 10.6571C109.815 10.5714 109.444 10.5286 109.072 10.5286C108.472 10.5286 108.025 10.6286 107.729 10.8286C107.434 11.019 107.287 11.2667 107.287 11.5714C107.287 11.8286 107.372 12.0286 107.544 12.1714C107.725 12.3048 107.953 12.4095 108.229 12.4857C108.515 12.5619 108.829 12.6286 109.172 12.6857C109.515 12.7333 109.858 12.8 110.201 12.8857C110.544 12.9619 110.853 13.0714 111.129 13.2143C111.415 13.3571 111.644 13.5571 111.815 13.8143C111.996 14.0714 112.087 14.4143 112.087 14.8429C112.087 15.3 111.953 15.6952 111.687 16.0286C111.42 16.3619 111.044 16.6238 110.558 16.8143C110.072 16.9952 109.491 17.0857 108.815 17.0857Z" fill="white"/>
<rect x="4" y="3" width="19" height="19" fill="white"/>
<path d="M5.40534 17V8.6H6.68934L10.3613 14.732H9.68934L13.3013 8.6H14.5853L14.5973 17H13.1213L13.1093 10.916H13.4213L10.3493 16.04H9.65334L6.53334 10.916H6.89334V17H5.40534ZM16.1583 17V15.956L19.4943 12.788C19.7743 12.524 19.9823 12.292 20.1183 12.092C20.2543 11.892 20.3423 11.708 20.3823 11.54C20.4303 11.364 20.4543 11.2 20.4543 11.048C20.4543 10.664 20.3223 10.368 20.0583 10.16C19.7943 9.944 19.4063 9.836 18.8943 9.836C18.4863 9.836 18.1143 9.908 17.7783 10.052C17.4503 10.196 17.1663 10.416 16.9263 10.712L15.8343 9.872C16.1623 9.432 16.6023 9.092 17.1543 8.852C17.7143 8.604 18.3383 8.48 19.0263 8.48C19.6343 8.48 20.1623 8.58 20.6103 8.78C21.0663 8.972 21.4143 9.248 21.6543 9.608C21.9023 9.968 22.0263 10.396 22.0263 10.892C22.0263 11.164 21.9903 11.436 21.9183 11.708C21.8463 11.972 21.7103 12.252 21.5103 12.548C21.3103 12.844 21.0183 13.176 20.6343 13.544L17.7663 16.268L17.4423 15.68H22.3503V17H16.1583Z" fill="black"/>
<defs>
<linearGradient id="paint0_linear_1_140" x1="11.993" y1="-9.95314e-06" x2="117.175" y2="58.044" gradientUnits="userSpaceOnUse">
<stop stop-color="white" stop-opacity="0.1"/>
<stop offset="1" stop-opacity="0"/>
</linearGradient>
</defs>
</svg>
