<svg width="89" height="25" viewBox="0 0 89 25" fill="none" xmlns="http://www.w3.org/2000/svg">
<rect x="0.595238" y="0.595238" width="87.8095" height="23.8095" fill="black" stroke="url(#paint0_linear_1_62)" stroke-width="1.19048"/>
<path opacity="0.1" d="M0 0H84.5238L25 25H0V0Z" fill="white" fill-opacity="0.8"/>
<path d="M36.8984 17V7H40.7984C41.6746 7 42.4222 7.13809 43.0413 7.41429C43.6603 7.69048 44.1365 8.09048 44.4699 8.61429C44.8032 9.1381 44.9699 9.7619 44.9699 10.4857C44.9699 11.2095 44.8032 11.8333 44.4699 12.3571C44.1365 12.8714 43.6603 13.2714 43.0413 13.5571C42.4222 13.8333 41.6746 13.9714 40.7984 13.9714H37.6842L38.327 13.3V17H36.8984ZM38.327 13.4429L37.6842 12.7286H40.7556C41.6699 12.7286 42.3603 12.5333 42.827 12.1429C43.3032 11.7524 43.5413 11.2 43.5413 10.4857C43.5413 9.77143 43.3032 9.21905 42.827 8.82857C42.3603 8.43809 41.6699 8.24286 40.7556 8.24286H37.6842L38.327 7.52857V13.4429ZM51.4989 17V15.4L51.4275 15.1V12.3714C51.4275 11.7905 51.256 11.3429 50.9132 11.0286C50.5798 10.7048 50.0751 10.5429 49.3989 10.5429C48.9513 10.5429 48.5132 10.619 48.0846 10.7714C47.656 10.9143 47.2941 11.1095 46.9989 11.3571L46.4275 10.3286C46.8179 10.0143 47.2846 9.77619 47.8275 9.61429C48.3798 9.44286 48.956 9.35714 49.556 9.35714C50.5941 9.35714 51.3941 9.60952 51.956 10.1143C52.5179 10.619 52.7989 11.3905 52.7989 12.4286V17H51.4989ZM49.0132 17.0857C48.4513 17.0857 47.956 16.9905 47.5275 16.8C47.1084 16.6095 46.7846 16.3476 46.556 16.0143C46.3275 15.6714 46.2132 15.2857 46.2132 14.8571C46.2132 14.4476 46.3084 14.0762 46.4989 13.7429C46.6989 13.4095 47.0179 13.1429 47.456 12.9429C47.9036 12.7429 48.5036 12.6429 49.256 12.6429H51.656V13.6286H49.3132C48.6275 13.6286 48.1656 13.7429 47.9275 13.9714C47.6894 14.2 47.5703 14.4762 47.5703 14.8C47.5703 15.1714 47.7179 15.4714 48.0132 15.7C48.3084 15.919 48.7179 16.0286 49.2417 16.0286C49.756 16.0286 50.2036 15.9143 50.5846 15.6857C50.9751 15.4571 51.256 15.1238 51.4275 14.6857L51.6989 15.6286C51.5179 16.0762 51.1989 16.4333 50.7417 16.7C50.2846 16.9571 49.7084 17.0857 49.0132 17.0857ZM55.3368 17V9.42857H56.6511V11.4857L56.5225 10.9714C56.7321 10.4476 57.0845 10.0476 57.5797 9.77143C58.0749 9.49524 58.6845 9.35714 59.4083 9.35714V10.6857C59.3511 10.6762 59.294 10.6714 59.2368 10.6714C59.1892 10.6714 59.1416 10.6714 59.094 10.6714C58.3606 10.6714 57.7797 10.8905 57.3511 11.3286C56.9225 11.7667 56.7083 12.4 56.7083 13.2286V17H55.3368ZM62.2128 15.1714L62.2414 13.4143L66.5985 9.42857H68.2557L64.9128 12.7143L64.17 13.3429L62.2128 15.1714ZM61.0985 17V6.4H62.47V17H61.0985ZM66.8843 17L63.9128 13.3143L64.7985 12.2143L68.57 17H66.8843Z" fill="white"/>
<rect x="4" y="3" width="19" height="19" fill="white"/>
<path d="M8.48933 17V8.6H11.9453C12.6893 8.6 13.3253 8.72 13.8533 8.96C14.3893 9.2 14.8013 9.544 15.0893 9.992C15.3773 10.44 15.5213 10.972 15.5213 11.588C15.5213 12.204 15.3773 12.736 15.0893 13.184C14.8013 13.632 14.3893 13.976 13.8533 14.216C13.3253 14.456 12.6893 14.576 11.9453 14.576H9.35333L10.0493 13.844V17H8.48933ZM10.0493 14.012L9.35333 13.256H11.8733C12.5613 13.256 13.0773 13.112 13.4213 12.824C13.7733 12.528 13.9493 12.116 13.9493 11.588C13.9493 11.052 13.7733 10.64 13.4213 10.352C13.0773 10.064 12.5613 9.92 11.8733 9.92H9.35333L10.0493 9.152V14.012ZM17.9404 17V9.2L18.6244 9.908H16.1644V8.6H19.5004V17H17.9404Z" fill="black"/>
<defs>
<linearGradient id="paint0_linear_1_62" x1="8.14789" y1="-9.95314e-06" x2="89.8805" y2="30.6429" gradientUnits="userSpaceOnUse">
<stop stop-color="white" stop-opacity="0.1"/>
<stop offset="1" stop-opacity="0"/>
</linearGradient>
</defs>
</svg>
