<svg width="89" height="25" viewBox="0 0 89 25" fill="none" xmlns="http://www.w3.org/2000/svg">
<rect x="0.595238" y="0.595238" width="87.8095" height="23.8095" fill="black" stroke="url(#paint0_linear_1_170)" stroke-width="1.19048"/>
<path opacity="0.1" d="M0 0H84.5238L25 25H0V0Z" fill="white" fill-opacity="0.8"/>
<path d="M34.6733 17V7H38.5733C39.4495 7 40.1971 7.13809 40.8161 7.41429C41.4352 7.69048 41.9114 8.09048 42.2447 8.61429C42.578 9.1381 42.7447 9.7619 42.7447 10.4857C42.7447 11.2095 42.578 11.8333 42.2447 12.3571C41.9114 12.8714 41.4352 13.2667 40.8161 13.5429C40.1971 13.819 39.4495 13.9571 38.5733 13.9571H35.459L36.1018 13.3V17H34.6733ZM41.359 17L38.8161 13.3714H40.3447L42.9161 17H41.359ZM36.1018 13.4429L35.459 12.7429H38.5304C39.4447 12.7429 40.1352 12.5476 40.6018 12.1571C41.078 11.7571 41.3161 11.2 41.3161 10.4857C41.3161 9.77143 41.078 9.21905 40.6018 8.82857C40.1352 8.43809 39.4447 8.24286 38.5304 8.24286H35.459L36.1018 7.52857V13.4429ZM48.0956 17.0857C47.3337 17.0857 46.6575 16.919 46.067 16.5857C45.4765 16.2524 45.0099 15.7952 44.667 15.2143C44.3242 14.6238 44.1527 13.9571 44.1527 13.2143C44.1527 12.4619 44.3242 11.7952 44.667 11.2143C45.0099 10.6333 45.4765 10.181 46.067 9.85714C46.6575 9.52381 47.3337 9.35714 48.0956 9.35714C48.848 9.35714 49.5194 9.52381 50.1099 9.85714C50.7099 10.181 51.1765 10.6333 51.5099 11.2143C51.8527 11.7857 52.0242 12.4524 52.0242 13.2143C52.0242 13.9667 51.8527 14.6333 51.5099 15.2143C51.1765 15.7952 50.7099 16.2524 50.1099 16.5857C49.5194 16.919 48.848 17.0857 48.0956 17.0857ZM48.0956 15.8857C48.5813 15.8857 49.0146 15.7762 49.3956 15.5571C49.7861 15.3381 50.0908 15.0286 50.3099 14.6286C50.5289 14.219 50.6384 13.7476 50.6384 13.2143C50.6384 12.6714 50.5289 12.2048 50.3099 11.8143C50.0908 11.4143 49.7861 11.1048 49.3956 10.8857C49.0146 10.6667 48.5813 10.5571 48.0956 10.5571C47.6099 10.5571 47.1765 10.6667 46.7956 10.8857C46.4146 11.1048 46.1099 11.4143 45.8813 11.8143C45.6527 12.2048 45.5384 12.6714 45.5384 13.2143C45.5384 13.7476 45.6527 14.219 45.8813 14.6286C46.1099 15.0286 46.4146 15.3381 46.7956 15.5571C47.1765 15.7762 47.6099 15.8857 48.0956 15.8857ZM58.5511 17V15.4L58.4796 15.1V12.3714C58.4796 11.7905 58.3082 11.3429 57.9653 11.0286C57.632 10.7048 57.1273 10.5429 56.4511 10.5429C56.0034 10.5429 55.5653 10.619 55.1368 10.7714C54.7082 10.9143 54.3463 11.1095 54.0511 11.3571L53.4796 10.3286C53.8701 10.0143 54.3368 9.77619 54.8796 9.61429C55.432 9.44286 56.0082 9.35714 56.6082 9.35714C57.6463 9.35714 58.4463 9.60952 59.0082 10.1143C59.5701 10.619 59.8511 11.3905 59.8511 12.4286V17H58.5511ZM56.0653 17.0857C55.5034 17.0857 55.0082 16.9905 54.5796 16.8C54.1606 16.6095 53.8368 16.3476 53.6082 16.0143C53.3796 15.6714 53.2653 15.2857 53.2653 14.8571C53.2653 14.4476 53.3606 14.0762 53.5511 13.7429C53.7511 13.4095 54.0701 13.1429 54.5082 12.9429C54.9558 12.7429 55.5558 12.6429 56.3082 12.6429H58.7082V13.6286H56.3653C55.6796 13.6286 55.2177 13.7429 54.9796 13.9714C54.7415 14.2 54.6225 14.4762 54.6225 14.8C54.6225 15.1714 54.7701 15.4714 55.0653 15.7C55.3606 15.919 55.7701 16.0286 56.2939 16.0286C56.8082 16.0286 57.2558 15.9143 57.6368 15.6857C58.0273 15.4571 58.3082 15.1238 58.4796 14.6857L58.7511 15.6286C58.5701 16.0762 58.2511 16.4333 57.7939 16.7C57.3368 16.9571 56.7606 17.0857 56.0653 17.0857ZM65.5176 17.0857C64.7842 17.0857 64.1271 16.9238 63.5462 16.6C62.9747 16.2762 62.5223 15.8238 62.189 15.2429C61.8557 14.6619 61.689 13.9857 61.689 13.2143C61.689 12.4429 61.8557 11.7714 62.189 11.2C62.5223 10.619 62.9747 10.1667 63.5462 9.84286C64.1271 9.51905 64.7842 9.35714 65.5176 9.35714C66.1557 9.35714 66.7319 9.5 67.2462 9.78571C67.7604 10.0714 68.17 10.5 68.4747 11.0714C68.789 11.6429 68.9462 12.3571 68.9462 13.2143C68.9462 14.0714 68.7938 14.7857 68.489 15.3571C68.1938 15.9286 67.789 16.3619 67.2747 16.6571C66.7604 16.9429 66.1747 17.0857 65.5176 17.0857ZM65.6319 15.8857C66.1081 15.8857 66.5366 15.7762 66.9176 15.5571C67.3081 15.3381 67.6128 15.0286 67.8319 14.6286C68.0604 14.219 68.1747 13.7476 68.1747 13.2143C68.1747 12.6714 68.0604 12.2048 67.8319 11.8143C67.6128 11.4143 67.3081 11.1048 66.9176 10.8857C66.5366 10.6667 66.1081 10.5571 65.6319 10.5571C65.1462 10.5571 64.7128 10.6667 64.3319 10.8857C63.9509 11.1048 63.6462 11.4143 63.4176 11.8143C63.189 12.2048 63.0747 12.6714 63.0747 13.2143C63.0747 13.7476 63.189 14.219 63.4176 14.6286C63.6462 15.0286 63.9509 15.3381 64.3319 15.5571C64.7128 15.7762 65.1462 15.8857 65.6319 15.8857ZM68.2176 17V14.9571L68.3033 13.2L68.1604 11.4429V6.4H69.5319V17H68.2176Z" fill="white"/>
<rect x="4" y="3" width="19" height="19" fill="white"/>
<path d="M7.24714 17V8.6H10.7031C11.4471 8.6 12.0831 8.72 12.6111 8.96C13.1471 9.2 13.5591 9.544 13.8471 9.992C14.1351 10.44 14.2791 10.972 14.2791 11.588C14.2791 12.204 14.1351 12.736 13.8471 13.184C13.5591 13.624 13.1471 13.964 12.6111 14.204C12.0831 14.436 11.4471 14.552 10.7031 14.552H8.11114L8.80714 13.844V17H7.24714ZM12.7431 17L10.6191 13.952H12.2871L14.4231 17H12.7431ZM8.80714 14.012L8.11114 13.268H10.6311C11.3191 13.268 11.8351 13.12 12.1791 12.824C12.5311 12.528 12.7071 12.116 12.7071 11.588C12.7071 11.052 12.5311 10.64 12.1791 10.352C11.8351 10.064 11.3191 9.92 10.6311 9.92H8.11114L8.80714 9.152V14.012ZM15.3165 17V15.956L18.6525 12.788C18.9325 12.524 19.1405 12.292 19.2765 12.092C19.4125 11.892 19.5005 11.708 19.5405 11.54C19.5885 11.364 19.6125 11.2 19.6125 11.048C19.6125 10.664 19.4805 10.368 19.2165 10.16C18.9525 9.944 18.5645 9.836 18.0525 9.836C17.6445 9.836 17.2725 9.908 16.9365 10.052C16.6085 10.196 16.3245 10.416 16.0845 10.712L14.9925 9.872C15.3205 9.432 15.7605 9.092 16.3125 8.852C16.8725 8.604 17.4965 8.48 18.1845 8.48C18.7925 8.48 19.3205 8.58 19.7685 8.78C20.2245 8.972 20.5725 9.248 20.8125 9.608C21.0605 9.968 21.1845 10.396 21.1845 10.892C21.1845 11.164 21.1485 11.436 21.0765 11.708C21.0045 11.972 20.8685 12.252 20.6685 12.548C20.4685 12.844 20.1765 13.176 19.7925 13.544L16.9245 16.268L16.6005 15.68H21.5085V17H15.3165Z" fill="black"/>
<defs>
<linearGradient id="paint0_linear_1_170" x1="8.14789" y1="-9.95314e-06" x2="89.8805" y2="30.6429" gradientUnits="userSpaceOnUse">
<stop stop-color="white" stop-opacity="0.1"/>
<stop offset="1" stop-opacity="0"/>
</linearGradient>
</defs>
</svg>
